<svg width="512" height="512" viewBox="0 0 512 512" fill="none" xmlns="http://www.w3.org/2000/svg">
<path d="M94.6719 146.125L90.6094 150.188V163.079H79.3203V103.079H90.6094V136.321L92.7969 133.508L103.617 120.813H117.172L101.898 138.43L118.5 163.079H105.531L94.6719 146.125ZM145.805 131.399C144.268 131.191 142.914 131.086 141.742 131.086C137.471 131.086 134.672 132.532 133.344 135.422V163.079H122.055V120.813H132.719L133.031 125.852C135.297 121.972 138.435 120.032 142.445 120.032C143.695 120.032 144.867 120.201 145.961 120.54L145.805 131.399ZM163.188 163.079H151.859V120.813H163.188V163.079ZM151.195 109.875C151.195 108.183 151.755 106.79 152.875 105.696C154.021 104.602 155.57 104.055 157.523 104.055C159.451 104.055 160.987 104.602 162.133 105.696C163.279 106.79 163.852 108.183 163.852 109.875C163.852 111.594 163.266 113 162.094 114.094C160.948 115.188 159.424 115.735 157.523 115.735C155.622 115.735 154.086 115.188 152.914 114.094C151.768 113 151.195 111.594 151.195 109.875ZM186.039 110.422V120.813H193.266V129.094H186.039V150.188C186.039 151.75 186.339 152.87 186.938 153.547C187.536 154.224 188.682 154.563 190.375 154.563C191.625 154.563 192.732 154.472 193.695 154.29V162.844C191.482 163.521 189.203 163.86 186.859 163.86C178.943 163.86 174.906 159.862 174.75 151.868V129.094H168.578V120.813H174.75V110.422H186.039ZM219.008 163.86C212.81 163.86 207.758 161.959 203.852 158.157C199.971 154.355 198.031 149.29 198.031 142.961V141.868C198.031 137.623 198.852 133.834 200.492 130.5C202.133 127.141 204.451 124.563 207.445 122.766C210.466 120.943 213.904 120.032 217.758 120.032C223.539 120.032 228.083 121.855 231.391 125.5C234.724 129.146 236.391 134.316 236.391 141.008V145.618H209.477C209.841 148.378 210.935 150.592 212.758 152.258C214.607 153.925 216.938 154.758 219.75 154.758C224.099 154.758 227.497 153.183 229.945 150.032L235.492 156.243C233.799 158.639 231.508 160.514 228.617 161.868C225.727 163.196 222.523 163.86 219.008 163.86ZM217.719 129.172C215.479 129.172 213.656 129.928 212.25 131.438C210.87 132.948 209.984 135.11 209.594 137.922H225.297V137.024C225.245 134.524 224.568 132.597 223.266 131.243C221.964 129.862 220.115 129.172 217.719 129.172ZM266.586 131.399C265.049 131.191 263.695 131.086 262.523 131.086C258.253 131.086 255.453 132.532 254.125 135.422V163.079H242.836V120.813H253.5L253.812 125.852C256.078 121.972 259.216 120.032 263.227 120.032C264.477 120.032 265.648 120.201 266.742 120.54L266.586 131.399ZM283.969 163.079H272.641V120.813H283.969V163.079ZM271.977 109.875C271.977 108.183 272.536 106.79 273.656 105.696C274.802 104.602 276.352 104.055 278.305 104.055C280.232 104.055 281.768 104.602 282.914 105.696C284.06 106.79 284.633 108.183 284.633 109.875C284.633 111.594 284.047 113 282.875 114.094C281.729 115.188 280.206 115.735 278.305 115.735C276.404 115.735 274.867 115.188 273.695 114.094C272.549 113 271.977 111.594 271.977 109.875ZM312.758 163.86C306.56 163.86 301.508 161.959 297.602 158.157C293.721 154.355 291.781 149.29 291.781 142.961V141.868C291.781 137.623 292.602 133.834 294.242 130.5C295.883 127.141 298.201 124.563 301.195 122.766C304.216 120.943 307.654 120.032 311.508 120.032C317.289 120.032 321.833 121.855 325.141 125.5C328.474 129.146 330.141 134.316 330.141 141.008V145.618H303.227C303.591 148.378 304.685 150.592 306.508 152.258C308.357 153.925 310.688 154.758 313.5 154.758C317.849 154.758 321.247 153.183 323.695 150.032L329.242 156.243C327.549 158.639 325.258 160.514 322.367 161.868C319.477 163.196 316.273 163.86 312.758 163.86ZM311.469 129.172C309.229 129.172 307.406 129.928 306 131.438C304.62 132.948 303.734 135.11 303.344 137.922H319.047V137.024C318.995 134.524 318.318 132.597 317.016 131.243C315.714 129.862 313.865 129.172 311.469 129.172ZM337.875 159.29C337.875 158.04 338.24 156.998 338.969 156.165C339.724 155.331 340.844 154.915 342.328 154.915C343.812 154.915 344.932 155.331 345.688 156.165C346.469 156.998 346.859 158.04 346.859 159.29C346.859 160.487 346.469 161.49 345.688 162.297C344.932 163.105 343.812 163.508 342.328 163.508C340.844 163.508 339.724 163.105 338.969 162.297C338.24 161.49 337.875 160.487 337.875 159.29ZM383.422 151.868C383.422 149.915 382.68 148.404 381.195 147.336C379.737 146.243 377.172 145.305 373.5 144.524C369.854 143.743 366.951 142.805 364.789 141.711C362.654 140.618 361.065 139.316 360.023 137.805C359.008 136.295 358.5 134.498 358.5 132.415C358.5 128.951 359.958 126.021 362.875 123.625C365.818 121.23 369.568 120.032 374.125 120.032C378.917 120.032 382.797 121.269 385.766 123.743C388.76 126.217 390.258 129.381 390.258 133.235H382.992C382.992 131.256 382.146 129.55 380.453 128.118C378.786 126.685 376.677 125.969 374.125 125.969C371.495 125.969 369.438 126.542 367.953 127.688C366.469 128.834 365.727 130.331 365.727 132.18C365.727 133.925 366.417 135.24 367.797 136.125C369.177 137.011 371.664 137.857 375.258 138.665C378.878 139.472 381.807 140.435 384.047 141.555C386.286 142.675 387.94 144.029 389.008 145.618C390.102 147.18 390.648 149.094 390.648 151.36C390.648 155.136 389.138 158.17 386.117 160.461C383.096 162.727 379.177 163.86 374.359 163.86C370.974 163.86 367.979 163.261 365.375 162.063C362.771 160.865 360.727 159.198 359.242 157.063C357.784 154.902 357.055 152.571 357.055 150.071H364.281C364.411 152.493 365.375 154.42 367.172 155.852C368.995 157.258 371.391 157.961 374.359 157.961C377.094 157.961 379.281 157.415 380.922 156.321C382.589 155.201 383.422 153.717 383.422 151.868ZM417.602 163.86C411.872 163.86 407.211 161.985 403.617 158.235C400.023 154.459 398.227 149.42 398.227 143.118V141.79C398.227 137.597 399.021 133.86 400.609 130.579C402.224 127.271 404.464 124.693 407.328 122.844C410.219 120.969 413.344 120.032 416.703 120.032C422.198 120.032 426.469 121.842 429.516 125.461C432.562 129.081 434.086 134.264 434.086 141.008V144.016H405.453C405.557 148.183 406.768 151.555 409.086 154.133C411.43 156.685 414.398 157.961 417.992 157.961C420.544 157.961 422.706 157.441 424.477 156.399C426.247 155.357 427.797 153.977 429.125 152.258L433.539 155.696C429.997 161.139 424.685 163.86 417.602 163.86ZM416.703 125.969C413.786 125.969 411.339 127.037 409.359 129.172C407.38 131.282 406.156 134.25 405.688 138.079H426.859V137.532C426.651 133.86 425.661 131.021 423.891 129.016C422.12 126.985 419.724 125.969 416.703 125.969Z" fill="black"/>
<g filter="url(#filter0_d)">
<rect x="78.6909" y="274.039" width="107.099" height="38.2119" fill="#FFE3D8" stroke="#E94600" stroke-width="4" stroke-dasharray="8 4"/>
<rect x="203.304" y="274.039" width="107.099" height="38.2119" fill="#FFE3D8" stroke="#E94600" stroke-width="4" stroke-dasharray="8 4"/>
<rect x="327.916" y="274.039" width="107.099" height="38.2119" stroke="#E94600" stroke-width="4" stroke-dasharray="8 4"/>
<rect x="78.6909" y="334.387" width="107.099" height="38.2119" fill="#FFE3D8" stroke="#E94600" stroke-width="4" stroke-dasharray="8 4"/>
<rect x="203.304" y="334.387" width="107.099" height="38.2119" stroke="#E94600" stroke-width="4" stroke-dasharray="8 4"/>
<rect x="327.916" y="334.387" width="107.099" height="38.2119" stroke="#E94600" stroke-width="4" stroke-dasharray="8 4"/>
<rect x="78.6909" y="394.736" width="107.099" height="38.2119" fill="#FFE3D8" stroke="#E94600" stroke-width="4" stroke-dasharray="8 4"/>
<rect x="203.304" y="394.736" width="107.099" height="38.2119" fill="#FFE3D8" stroke="#E94600" stroke-width="4" stroke-dasharray="8 4"/>
<rect x="327.916" y="394.736" width="107.099" height="38.2119" fill="#FFE3D8" stroke="#E94600" stroke-width="4" stroke-dasharray="8 4"/>
<path d="M134.857 246.715H128.388V250.781H136.029V253.945H124.275V236.883H136.052V240.058H128.388V243.656H134.857V246.715Z" fill="#E94600"/>
<path d="M264.072 248.168C264.017 249.355 263.697 250.406 263.111 251.32C262.525 252.226 261.701 252.93 260.638 253.43C259.584 253.93 258.377 254.18 257.017 254.18C254.775 254.18 253.009 253.449 251.72 251.988C250.431 250.527 249.787 248.465 249.787 245.801V244.957C249.787 243.285 250.076 241.824 250.654 240.574C251.24 239.316 252.08 238.347 253.174 237.668C254.267 236.98 255.533 236.637 256.97 236.637C259.041 236.637 260.705 237.183 261.963 238.277C263.22 239.363 263.935 240.863 264.107 242.777H260.006C259.974 241.738 259.713 240.992 259.22 240.539C258.728 240.086 257.978 239.859 256.97 239.859C255.947 239.859 255.197 240.242 254.72 241.008C254.244 241.773 253.994 242.996 253.97 244.676V245.883C253.97 247.703 254.197 249.004 254.65 249.785C255.111 250.566 255.9 250.957 257.017 250.957C257.963 250.957 258.685 250.734 259.185 250.289C259.685 249.844 259.951 249.137 259.982 248.168H264.072Z" fill="#E94600"/>
<path d="M384.267 250.758H378.63L377.646 253.945H373.251L379.509 236.883H383.376L389.681 253.945H385.263L384.267 250.758ZM379.614 247.582H383.282L381.443 241.664L379.614 247.582Z" fill="#E94600"/>
</g>
<defs>
<filter id="filter0_d" x="60.6909" y="222.637" width="392.325" height="230.311" filterUnits="userSpaceOnUse" color-interpolation-filters="sRGB">
<feFlood flood-opacity="0" result="BackgroundImageFix"/>
<feColorMatrix in="SourceAlpha" type="matrix" values="0 0 0 0 0 0 0 0 0 0 0 0 0 0 0 0 0 0 127 0"/>
<feOffset dy="2"/>
<feGaussianBlur stdDeviation="8"/>
<feColorMatrix type="matrix" values="0 0 0 0 0 0 0 0 0 0 0 0 0 0 0 0 0 0 0.12 0"/>
<feBlend mode="normal" in2="BackgroundImageFix" result="effect1_dropShadow"/>
<feBlend mode="normal" in="SourceGraphic" in2="effect1_dropShadow" result="shape"/>
</filter>
</defs>
</svg>
