<svg width="256" height="256" viewBox="0 0 256 256" fill="none" xmlns="http://www.w3.org/2000/svg">
<g clip-path="url(#clip0)">
<rect width="256" height="256" fill="#FFF4F0"/>
<path d="M47.3359 82.254L45.3047 84.2852V90.7305H39.6602V60.7305H45.3047V77.3516L46.3984 75.9454L51.8086 69.5977H58.5859L50.9492 78.4063L59.25 90.7305H52.7656L47.3359 82.254ZM72.9023 74.8907C72.1341 74.7865 71.457 74.7344 70.8711 74.7344C68.7357 74.7344 67.3359 75.4571 66.6719 76.9024V90.7305H61.0273V69.5977H66.3594L66.5156 72.1172C67.6484 70.1771 69.2174 69.2071 71.2227 69.2071C71.8477 69.2071 72.4336 69.2917 72.9805 69.461L72.9023 74.8907ZM81.5938 90.7305H75.9297V69.5977H81.5938V90.7305ZM75.5977 64.129C75.5977 63.2826 75.8776 62.586 76.4375 62.0391C77.0104 61.4922 77.7852 61.2188 78.7617 61.2188C79.7253 61.2188 80.4935 61.4922 81.0664 62.0391C81.6393 62.586 81.9258 63.2826 81.9258 64.129C81.9258 64.9883 81.6328 65.6915 81.0469 66.2383C80.474 66.7852 79.7122 67.0587 78.7617 67.0587C77.8112 67.0587 77.043 66.7852 76.457 66.2383C75.8841 65.6915 75.5977 64.9883 75.5977 64.129ZM93.0195 64.4024V69.5977H96.6328V73.7383H93.0195V84.2852C93.0195 85.0665 93.1693 85.6264 93.4688 85.9649C93.7682 86.3034 94.3411 86.4727 95.1875 86.4727C95.8125 86.4727 96.3659 86.4271 96.8477 86.336V90.6133C95.7409 90.9519 94.6016 91.1212 93.4297 91.1212C89.4714 91.1212 87.4531 89.1225 87.375 85.1251V73.7383H84.2891V69.5977H87.375V64.4024H93.0195ZM109.504 91.1212C106.405 91.1212 103.879 90.1706 101.926 88.2696C99.9857 86.3686 99.0156 83.836 99.0156 80.6719V80.1251C99.0156 78.0027 99.4258 76.1081 100.246 74.4415C101.066 72.7618 102.225 71.4727 103.723 70.5743C105.233 69.6628 106.952 69.2071 108.879 69.2071C111.77 69.2071 114.042 70.1186 115.695 71.9415C117.362 73.7644 118.195 76.349 118.195 79.6954V82.0001H104.738C104.921 83.3803 105.467 84.487 106.379 85.3204C107.303 86.1537 108.469 86.5704 109.875 86.5704C112.049 86.5704 113.749 85.7826 114.973 84.2071L117.746 87.3126C116.9 88.5105 115.754 89.448 114.309 90.1251C112.863 90.7891 111.262 91.1212 109.504 91.1212ZM108.859 73.7774C107.74 73.7774 106.828 74.155 106.125 74.9102C105.435 75.6654 104.992 76.7462 104.797 78.1524H112.648V77.7032C112.622 76.4532 112.284 75.4896 111.633 74.8126C110.982 74.1225 110.057 73.7774 108.859 73.7774ZM133.293 74.8907C132.525 74.7865 131.848 74.7344 131.262 74.7344C129.126 74.7344 127.727 75.4571 127.062 76.9024V90.7305H121.418V69.5977H126.75L126.906 72.1172C128.039 70.1771 129.608 69.2071 131.613 69.2071C132.238 69.2071 132.824 69.2917 133.371 69.461L133.293 74.8907ZM141.984 90.7305H136.32V69.5977H141.984V90.7305ZM135.988 64.129C135.988 63.2826 136.268 62.586 136.828 62.0391C137.401 61.4922 138.176 61.2188 139.152 61.2188C140.116 61.2188 140.884 61.4922 141.457 62.0391C142.03 62.586 142.316 63.2826 142.316 64.129C142.316 64.9883 142.023 65.6915 141.438 66.2383C140.865 66.7852 140.103 67.0587 139.152 67.0587C138.202 67.0587 137.434 66.7852 136.848 66.2383C136.275 65.6915 135.988 64.9883 135.988 64.129ZM156.379 91.1212C153.28 91.1212 150.754 90.1706 148.801 88.2696C146.861 86.3686 145.891 83.836 145.891 80.6719V80.1251C145.891 78.0027 146.301 76.1081 147.121 74.4415C147.941 72.7618 149.1 71.4727 150.598 70.5743C152.108 69.6628 153.827 69.2071 155.754 69.2071C158.645 69.2071 160.917 70.1186 162.57 71.9415C164.237 73.7644 165.07 76.349 165.07 79.6954V82.0001H151.613C151.796 83.3803 152.342 84.487 153.254 85.3204C154.178 86.1537 155.344 86.5704 156.75 86.5704C158.924 86.5704 160.624 85.7826 161.848 84.2071L164.621 87.3126C163.775 88.5105 162.629 89.448 161.184 90.1251C159.738 90.7891 158.137 91.1212 156.379 91.1212ZM155.734 73.7774C154.615 73.7774 153.703 74.155 153 74.9102C152.31 75.6654 151.867 76.7462 151.672 78.1524H159.523V77.7032C159.497 76.4532 159.159 75.4896 158.508 74.8126C157.857 74.1225 156.932 73.7774 155.734 73.7774ZM168.938 88.836C168.938 88.211 169.12 87.6902 169.484 87.2735C169.862 86.8568 170.422 86.6485 171.164 86.6485C171.906 86.6485 172.466 86.8568 172.844 87.2735C173.234 87.6902 173.43 88.211 173.43 88.836C173.43 89.435 173.234 89.9363 172.844 90.3399C172.466 90.7436 171.906 90.9454 171.164 90.9454C170.422 90.9454 169.862 90.7436 169.484 90.3399C169.12 89.9363 168.938 89.435 168.938 88.836ZM191.711 85.1251C191.711 84.1485 191.34 83.3933 190.598 82.8594C189.868 82.3126 188.586 81.8438 186.75 81.4532C184.927 81.0626 183.475 80.5938 182.395 80.0469C181.327 79.5001 180.533 78.849 180.012 78.0938C179.504 77.3386 179.25 76.4402 179.25 75.3985C179.25 73.6667 179.979 72.2019 181.438 71.004C182.909 69.8061 184.784 69.2071 187.062 69.2071C189.458 69.2071 191.398 69.8256 192.883 71.0626C194.38 72.2995 195.129 73.8816 195.129 75.8087H191.496C191.496 74.8191 191.073 73.9662 190.227 73.2501C189.393 72.5339 188.339 72.1758 187.062 72.1758C185.747 72.1758 184.719 72.4623 183.977 73.0352C183.234 73.6081 182.863 74.3568 182.863 75.2813C182.863 76.1537 183.208 76.8113 183.898 77.254C184.589 77.6967 185.832 78.1199 187.629 78.5235C189.439 78.9271 190.904 79.4089 192.023 79.9688C193.143 80.5287 193.97 81.2058 194.504 82.0001C195.051 82.7813 195.324 83.7383 195.324 84.8712C195.324 86.7592 194.569 88.2761 193.059 89.4219C191.548 90.5547 189.589 91.1212 187.18 91.1212C185.487 91.1212 183.99 90.8217 182.688 90.2227C181.385 89.6238 180.363 88.7904 179.621 87.7227C178.892 86.642 178.527 85.4766 178.527 84.2266H182.141C182.206 85.4376 182.688 86.4011 183.586 87.1172C184.497 87.8204 185.695 88.1719 187.18 88.1719C188.547 88.1719 189.641 87.8985 190.461 87.3516C191.294 86.7917 191.711 86.0495 191.711 85.1251ZM208.801 91.1212C205.936 91.1212 203.605 90.1837 201.809 88.3087C200.012 86.4206 199.113 83.9011 199.113 80.7501V80.086C199.113 77.9896 199.51 76.1212 200.305 74.4805C201.112 72.8269 202.232 71.5378 203.664 70.6133C205.109 69.6758 206.672 69.2071 208.352 69.2071C211.099 69.2071 213.234 70.112 214.758 71.9219C216.281 73.7318 217.043 76.323 217.043 79.6954V81.1993H202.727C202.779 83.2826 203.384 84.9688 204.543 86.2579C205.715 87.5339 207.199 88.1719 208.996 88.1719C210.272 88.1719 211.353 87.9115 212.238 87.3907C213.124 86.8699 213.898 86.1797 214.562 85.3204L216.77 87.0391C214.999 89.7605 212.342 91.1212 208.801 91.1212ZM208.352 72.1758C206.893 72.1758 205.669 72.7097 204.68 73.7774C203.69 74.8321 203.078 76.3165 202.844 78.2305H213.43V77.9571C213.326 76.1212 212.831 74.7019 211.945 73.6993C211.06 72.6837 209.862 72.1758 208.352 72.1758Z" fill="black"/>
<g filter="url(#filter0_d)">
<rect x="40.7909" y="137.658" width="51.0118" height="17.0752" fill="#FFE3D8" stroke="#FBC3AD" stroke-width="4" stroke-dasharray="8 4"/>
<rect x="102.494" y="137.658" width="51.0118" height="17.0752" fill="#FFE3D8" stroke="#FBC3AD" stroke-width="4" stroke-dasharray="8 4"/>
<rect x="164.197" y="137.658" width="51.0118" height="17.0752" stroke="#FBC3AD" stroke-width="4" stroke-dasharray="8 4"/>
<rect x="40.7909" y="167.788" width="51.0118" height="17.0752" fill="#FFE3D8" stroke="#FBC3AD" stroke-width="4" stroke-dasharray="8 4"/>
<rect x="102.494" y="167.788" width="51.0118" height="17.0752" stroke="#FBC3AD" stroke-width="4" stroke-dasharray="8 4"/>
<rect x="164.197" y="167.788" width="51.0118" height="17.0752" stroke="#FBC3AD" stroke-width="4" stroke-dasharray="8 4"/>
<rect x="40.7909" y="197.919" width="51.0118" height="17.0752" fill="#FFE3D8" stroke="#FBC3AD" stroke-width="4" stroke-dasharray="8 4"/>
<rect x="102.494" y="197.919" width="51.0118" height="17.0752" fill="#FFE3D8" stroke="#FBC3AD" stroke-width="4" stroke-dasharray="8 4"/>
<rect x="164.197" y="197.919" width="51.0118" height="17.0752" fill="#FFE3D8" stroke="#FBC3AD" stroke-width="4" stroke-dasharray="8 4"/>
</g>
</g>
<defs>
<filter id="filter0_d" x="30.7909" y="129.658" width="194.418" height="97.3356" filterUnits="userSpaceOnUse" color-interpolation-filters="sRGB">
<feFlood flood-opacity="0" result="BackgroundImageFix"/>
<feColorMatrix in="SourceAlpha" type="matrix" values="0 0 0 0 0 0 0 0 0 0 0 0 0 0 0 0 0 0 127 0"/>
<feOffset dy="2"/>
<feGaussianBlur stdDeviation="4"/>
<feColorMatrix type="matrix" values="0 0 0 0 0 0 0 0 0 0 0 0 0 0 0 0 0 0 0.06 0"/>
<feBlend mode="normal" in2="BackgroundImageFix" result="effect1_dropShadow"/>
<feBlend mode="normal" in="SourceGraphic" in2="effect1_dropShadow" result="shape"/>
</filter>
<clipPath id="clip0">
<rect width="256" height="256" fill="white"/>
</clipPath>
</defs>
</svg>
